//Event file generated from Sappy .s format.
        #include "MPlayDef.event"

        #define    AtSkysEnd_grp  voicegroup000
        #define    AtSkysEnd_pri  0
        #define    AtSkysEnd_rev  0
        #define    AtSkysEnd_key  0

        // .rodata
        // AtSkysEnd
        ALIGN 4

//****************** Track 0 (Midi-Chn.0) ******************//

AtSkysEnd_0:
        BYTE   KEYSH   AtSkysEnd_key+0
// 000   ----------------------------------------
        BYTE   TEMPO   120/2
        BYTE           VOICE   73
        BYTE           VOL     127
        BYTE   W72
// 001   ----------------------------------------
        BYTE   W72
// 002   ----------------------------------------
AtSkysEnd_0_LOOP:
        BYTE   W72
// 003   ----------------------------------------
        BYTE   W72
// 004   ----------------------------------------
        BYTE           N72     Cn5   v018
        BYTE   W72
// 005   ----------------------------------------
        BYTE                   As4
        BYTE   W72
// 006   ----------------------------------------
        BYTE                   Gn4
        BYTE   W72
// 007   ----------------------------------------
        BYTE                   Cs4   v020
        BYTE   W72
// 008   ----------------------------------------
        BYTE                   Cn4
        BYTE   W72
// 009   ----------------------------------------
        BYTE                   Cs4
        BYTE   W72
// 010   ----------------------------------------
        BYTE           N12     Cn4   v035
        BYTE   W12
        BYTE                   Cn5   v031
        BYTE   W12
        BYTE           N06     Gs4
        BYTE   W06
        BYTE                   Gn4   v028
        BYTE   W06
        BYTE                   Fn4   v031
        BYTE   W12
        BYTE           N12     Gn4
        BYTE   W12
        BYTE           N06     Gs4   v028
        BYTE   W12
// 011   ----------------------------------------
        BYTE           N12     Cn4   v035
        BYTE   W12
        BYTE                   Cn5   v031
        BYTE   W12
        BYTE           N06     As4
        BYTE   W06
        BYTE                   Gs4   v028
        BYTE   W06
        BYTE           N24     Gn4   v031
        BYTE   W36
// 012   ----------------------------------------
        BYTE           N12     Cn4   v035
        BYTE   W12
        BYTE                   Gn4   v031
        BYTE   W12
        BYTE           N06     Gs4
        BYTE   W06
        BYTE                   Gn4   v028
        BYTE   W06
        BYTE                   Fn4   v031
        BYTE   W12
        BYTE           N18     Ds4
        BYTE   W18
        BYTE           N06     Fn4   v028
        BYTE   W06
// 013   ----------------------------------------
        BYTE                   Ds4   v035
        BYTE   W06
        BYTE                   Dn4   v028
        BYTE   W12
        BYTE                   Cn4
        BYTE   W06
        BYTE           N24     Dn4   v031
        BYTE   W48
// 014   ----------------------------------------
        BYTE   W72
// 015   ----------------------------------------
        BYTE   W72
// 016   ----------------------------------------
        BYTE   W72
// 017   ----------------------------------------
        BYTE   W72
// 018   ----------------------------------------
        BYTE   W72
// 019   ----------------------------------------
        BYTE   W72
// 020   ----------------------------------------
        BYTE   W72
// 021   ----------------------------------------
        BYTE   W72
// 022   ----------------------------------------
        BYTE   W72
// 023   ----------------------------------------
        BYTE   W72
// 024   ----------------------------------------
        BYTE   W72
// 025   ----------------------------------------
        BYTE   W72
// 026   ----------------------------------------
        BYTE   W72
// 027   ----------------------------------------
        BYTE   W72
// 028   ----------------------------------------
        BYTE   W72
// 029   ----------------------------------------
        BYTE   W72
// 030   ----------------------------------------
        BYTE           N72     As4   v018
        BYTE   W72
// 031   ----------------------------------------
        BYTE                   En4   v020
        BYTE   W72
// 032   ----------------------------------------
        BYTE                   Ds4
        BYTE   W72
// 033   ----------------------------------------
        BYTE                   En4
        BYTE   W72
// 034   ----------------------------------------
        BYTE           N12     Ds4   v035
        BYTE   W12
        BYTE                   Ds5   v031
        BYTE   W12
        BYTE           N06     Bn4
        BYTE   W06
        BYTE                   As4   v028
        BYTE   W06
        BYTE                   Gs4   v031
        BYTE   W12
        BYTE           N12     As4
        BYTE   W12
        BYTE           N06     Bn4   v028
        BYTE   W12
// 035   ----------------------------------------
        BYTE           N12     Ds4   v035
        BYTE   W12
        BYTE                   Ds5   v031
        BYTE   W12
        BYTE           N06     Cs5
        BYTE   W06
        BYTE                   Bn4   v028
        BYTE   W06
        BYTE           N24     As4   v031
        BYTE   W36
// 036   ----------------------------------------
        BYTE           N12     Ds4   v035
        BYTE   W12
        BYTE                   As4   v031
        BYTE   W12
        BYTE           N06     Bn4
        BYTE   W06
        BYTE                   As4   v028
        BYTE   W06
        BYTE                   Gs4   v031
        BYTE   W12
        BYTE           N18     Fs4
        BYTE   W18
        BYTE           N06     Gs4   v028
        BYTE   W06
// 037   ----------------------------------------
        BYTE                   Fs4   v035
        BYTE   W06
        BYTE                   Fn4   v028
        BYTE   W12
        BYTE                   Ds4
        BYTE   W06
        BYTE           N24     Fn4   v031
        BYTE   W48
// 038   ----------------------------------------
        BYTE   W96
// 039   ----------------------------------------
        BYTE   W96
// 040   ----------------------------------------
        BYTE   W96
// 041   ----------------------------------------
        BYTE   W96
// 042   ----------------------------------------
        BYTE   W96
// 043   ----------------------------------------
        BYTE   W96
// 044   ----------------------------------------
        BYTE   W96
// 045   ----------------------------------------
        BYTE   W96
// 046   ----------------------------------------
        BYTE   W96
// 047   ----------------------------------------
        BYTE   W96
// 048   ----------------------------------------
        BYTE   W96
// 049   ----------------------------------------
        BYTE   W96
// 050   ----------------------------------------
        BYTE   W72
// 051   ----------------------------------------
        BYTE   W72
// 052   ----------------------------------------
        BYTE   W72
// 053   ----------------------------------------
        BYTE   W72
// 054   ----------------------------------------
        BYTE           N12     Gn4   v035
        BYTE   W12
        BYTE                   Gn5   v031
        BYTE   W12
        BYTE           N06     Fs5
        BYTE   W06
        BYTE                   En5   v028
        BYTE   W06
        BYTE                   An4   v031
        BYTE   W12
        BYTE           N12     Dn5
        BYTE   W12
        BYTE           N06     En5   v028
        BYTE   W12
// 055   ----------------------------------------
        BYTE           N12     Fs5   v035
        BYTE   W12
        BYTE                   Dn5   v031
        BYTE   W12
        BYTE           N06     Cn5
        BYTE   W06
        BYTE                   Bn4   v028
        BYTE   W06
        BYTE           N24     An4   v031
        BYTE   W24
        BYTE           N06     Gn4
        BYTE   W06
        BYTE                   Fs4   v028
        BYTE   W06
// 056   ----------------------------------------
        BYTE           N12     En4   v035
        BYTE   W12
        BYTE                   En5   v031
        BYTE   W12
        BYTE           N06     En4
        BYTE   W06
        BYTE                   Fs4   v028
        BYTE   W06
        BYTE           N24     Gn4   v031
        BYTE   W24
        BYTE           N12     Fs4   v028
        BYTE   W12
// 057   ----------------------------------------
        BYTE                   Gn4
        BYTE   W12
        BYTE           N06     Fs4   v031
        BYTE   W06
        BYTE                   Gn4   v028
        BYTE   W06
        BYTE           N36     En4
        BYTE   W48
// 058   ----------------------------------------
        BYTE   W72
// 059   ----------------------------------------
        BYTE   W72
// 060   ----------------------------------------
        BYTE   W72
// 061   ----------------------------------------
        BYTE   W72
// 062   ----------------------------------------
        BYTE   W72
// 063   ----------------------------------------
        BYTE   W72
// 064   ----------------------------------------
        BYTE   W72
// 065   ----------------------------------------
        BYTE   W72
// 066   ----------------------------------------
        BYTE   W72
// 067   ----------------------------------------
        BYTE   W72
// 068   ----------------------------------------
        BYTE   W72
// 069   ----------------------------------------
        BYTE   W72
// 070   ----------------------------------------
        BYTE   W72
// 071   ----------------------------------------
        BYTE   W72
// 072   ----------------------------------------
        BYTE   GoTo
         POIN2  AtSkysEnd_0_LOOP
        BYTE   FINE

//****************** Track 1 (Midi-Chn.1) ******************//

AtSkysEnd_1:
        BYTE   KEYSH   AtSkysEnd_key+0
// 000   ----------------------------------------
        BYTE           VOICE   40
        BYTE           VOL     127
        BYTE   W72
// 001   ----------------------------------------
        BYTE   W72
// 002   ----------------------------------------
AtSkysEnd_1_LOOP:
        BYTE   W72
// 003   ----------------------------------------
        BYTE   W72
// 004   ----------------------------------------
        BYTE   W72
// 005   ----------------------------------------
        BYTE   W72
// 006   ----------------------------------------
AtSkysEnd_1_6:
        BYTE           N12     Cn3   v050
        BYTE   W12
        BYTE                   Cn4   v045
        BYTE   W12
        BYTE           N06     Gs3
        BYTE   W06
        BYTE                   Gn3   v040
        BYTE   W06
        BYTE                   Fn3   v045
        BYTE   W12
        BYTE           N12     Gn3
        BYTE   W12
        BYTE           N06     Gs3   v040
        BYTE   W12
        BYTE   PEND
// 007   ----------------------------------------
AtSkysEnd_1_7:
        BYTE           N12     Cn3   v050
        BYTE   W12
        BYTE                   Cn4   v045
        BYTE   W12
        BYTE           N06     As3
        BYTE   W06
        BYTE                   Gs3   v040
        BYTE   W06
        BYTE           N24     Gn3   v045
        BYTE   W36
        BYTE   PEND
// 008   ----------------------------------------
AtSkysEnd_1_8:
        BYTE           N12     Cn3   v050
        BYTE   W12
        BYTE                   Gn3   v045
        BYTE   W12
        BYTE           N06     Gs3
        BYTE   W06
        BYTE                   Gn3   v040
        BYTE   W06
        BYTE                   Fn3   v045
        BYTE   W12
        BYTE           N18     Ds3
        BYTE   W18
        BYTE           N06     Fn3   v040
        BYTE   W06
        BYTE   PEND
// 009   ----------------------------------------
AtSkysEnd_1_9:
        BYTE           N06     Ds3   v050
        BYTE   W06
        BYTE                   Dn3   v040
        BYTE   W12
        BYTE                   Cn3
        BYTE   W06
        BYTE           N24     Dn3   v045
        BYTE   W48
        BYTE   PEND
// 010   ----------------------------------------
        BYTE   PATT
         POIN2  AtSkysEnd_1_6
// 011   ----------------------------------------
        BYTE   PATT
         POIN2  AtSkysEnd_1_7
// 012   ----------------------------------------
        BYTE   PATT
         POIN2  AtSkysEnd_1_8
// 013   ----------------------------------------
        BYTE   PATT
         POIN2  AtSkysEnd_1_9
// 014   ----------------------------------------
        BYTE   W72
// 015   ----------------------------------------
        BYTE   W72
// 016   ----------------------------------------
        BYTE   W72
// 017   ----------------------------------------
        BYTE   W72
// 018   ----------------------------------------
        BYTE   W72
// 019   ----------------------------------------
        BYTE   W72
// 020   ----------------------------------------
        BYTE   W72
// 021   ----------------------------------------
        BYTE   W72
// 022   ----------------------------------------
        BYTE   W72
// 023   ----------------------------------------
        BYTE   W72
// 024   ----------------------------------------
        BYTE   W72
// 025   ----------------------------------------
        BYTE   W72
// 026   ----------------------------------------
        BYTE   W72
// 027   ----------------------------------------
        BYTE   W72
// 028   ----------------------------------------
        BYTE   W72
// 029   ----------------------------------------
        BYTE   W72
// 030   ----------------------------------------
AtSkysEnd_1_30:
        BYTE           N12     Ds3   v050
        BYTE   W12
        BYTE                   Ds4   v045
        BYTE   W12
        BYTE           N06     Bn3
        BYTE   W06
        BYTE                   As3   v040
        BYTE   W06
        BYTE                   Gs3   v045
        BYTE   W12
        BYTE           N12     As3
        BYTE   W12
        BYTE           N06     Bn3   v040
        BYTE   W12
        BYTE   PEND
// 031   ----------------------------------------
AtSkysEnd_1_31:
        BYTE           N12     Ds3   v050
        BYTE   W12
        BYTE                   Ds4   v045
        BYTE   W12
        BYTE           N06     Cs4
        BYTE   W06
        BYTE                   Bn3   v040
        BYTE   W06
        BYTE           N24     As3   v045
        BYTE   W36
        BYTE   PEND
// 032   ----------------------------------------
AtSkysEnd_1_32:
        BYTE           N12     Ds3   v050
        BYTE   W12
        BYTE                   As3   v045
        BYTE   W12
        BYTE           N06     Bn3
        BYTE   W06
        BYTE                   As3   v040
        BYTE   W06
        BYTE                   Gs3   v045
        BYTE   W12
        BYTE           N18     Fs3
        BYTE   W18
        BYTE           N06     Gs3   v040
        BYTE   W06
        BYTE   PEND
// 033   ----------------------------------------
AtSkysEnd_1_33:
        BYTE           N06     Fs3   v050
        BYTE   W06
        BYTE                   Fn3   v040
        BYTE   W12
        BYTE                   Ds3
        BYTE   W06
        BYTE           N24     Fn3   v045
        BYTE   W48
        BYTE   PEND
// 034   ----------------------------------------
        BYTE   PATT
         POIN2  AtSkysEnd_1_30
// 035   ----------------------------------------
        BYTE   PATT
         POIN2  AtSkysEnd_1_31
// 036   ----------------------------------------
        BYTE   PATT
         POIN2  AtSkysEnd_1_32
// 037   ----------------------------------------
        BYTE   PATT
         POIN2  AtSkysEnd_1_33
// 038   ----------------------------------------
        BYTE   W96
// 039   ----------------------------------------
        BYTE   W96
// 040   ----------------------------------------
        BYTE   W96
// 041   ----------------------------------------
        BYTE   W96
// 042   ----------------------------------------
        BYTE   W96
// 043   ----------------------------------------
        BYTE   W96
// 044   ----------------------------------------
        BYTE   W96
// 045   ----------------------------------------
        BYTE   W96
// 046   ----------------------------------------
        BYTE   W96
// 047   ----------------------------------------
        BYTE   W96
// 048   ----------------------------------------
        BYTE   W96
// 049   ----------------------------------------
        BYTE   W96
// 050   ----------------------------------------
AtSkysEnd_1_50:
        BYTE           N12     Gn3   v050
        BYTE   W12
        BYTE                   Gn4   v045
        BYTE   W12
        BYTE           N06     Fs4
        BYTE   W06
        BYTE                   En4   v040
        BYTE   W06
        BYTE                   An3   v045
        BYTE   W12
        BYTE           N12     Dn4
        BYTE   W12
        BYTE           N06     En4   v040
        BYTE   W12
        BYTE   PEND
// 051   ----------------------------------------
AtSkysEnd_1_51:
        BYTE           N12     Fs4   v050
        BYTE   W12
        BYTE                   Dn4   v045
        BYTE   W12
        BYTE           N06     Cn4
        BYTE   W06
        BYTE                   Bn3   v040
        BYTE   W06
        BYTE           N24     An3   v045
        BYTE   W24
        BYTE           N06     Gn3
        BYTE   W06
        BYTE                   Fs3   v040
        BYTE   W06
        BYTE   PEND
// 052   ----------------------------------------
AtSkysEnd_1_52:
        BYTE           N12     En3   v050
        BYTE   W12
        BYTE                   En4   v045
        BYTE   W12
        BYTE           N06     En3
        BYTE   W06
        BYTE                   Fs3   v040
        BYTE   W06
        BYTE           N24     Gn3   v045
        BYTE   W24
        BYTE           N12     Fs3   v040
        BYTE   W12
        BYTE   PEND
// 053   ----------------------------------------
AtSkysEnd_1_53:
        BYTE           N12     Gn3   v040
        BYTE   W12
        BYTE           N06     Fs3   v045
        BYTE   W06
        BYTE                   Gn3   v040
        BYTE   W06
        BYTE           N36     En3
        BYTE   W48
        BYTE   PEND
// 054   ----------------------------------------
        BYTE   PATT
         POIN2  AtSkysEnd_1_50
// 055   ----------------------------------------
        BYTE   PATT
         POIN2  AtSkysEnd_1_51
// 056   ----------------------------------------
        BYTE   PATT
         POIN2  AtSkysEnd_1_52
// 057   ----------------------------------------
        BYTE   PATT
         POIN2  AtSkysEnd_1_53
// 058   ----------------------------------------
        BYTE   PATT
         POIN2  AtSkysEnd_1_50
// 059   ----------------------------------------
        BYTE           N12     Fs4   v050
        BYTE   W12
        BYTE                   Gn4   v045
        BYTE   W24
        BYTE           N24     An4
        BYTE   W24
        BYTE           N06     Gn4
        BYTE   W06
        BYTE                   Fs4   v040
        BYTE   W06
// 060   ----------------------------------------
        BYTE           N12     En4   v050
        BYTE   W12
        BYTE                   En4   v045
        BYTE   W12
        BYTE           N06
        BYTE   W06
        BYTE                   Fs4   v040
        BYTE   W06
        BYTE           N24     Gn4   v045
        BYTE   W36
// 061   ----------------------------------------
        BYTE           N60     Dn4   v040
        BYTE   W72
// 062   ----------------------------------------
        BYTE                   Cn4
        BYTE   W72
// 063   ----------------------------------------
        BYTE                   Bn3
        BYTE   W72
// 064   ----------------------------------------
        BYTE           N12
        BYTE   W12
        BYTE           N06     Bn3   v030
        BYTE   W06
        BYTE                   Bn3   v035
        BYTE   W06
        BYTE           N12     Bn3   v040
        BYTE   W12
        BYTE           N06     Bn3   v030
        BYTE   W06
        BYTE                   Bn3   v035
        BYTE   W06
        BYTE           N12     Bn3   v040
        BYTE   W12
        BYTE           N06     Bn3   v030
        BYTE   W06
        BYTE                   Bn3   v035
        BYTE   W06
// 065   ----------------------------------------
        BYTE           N48     Bn3   v030
        BYTE   W72
// 066   ----------------------------------------
        BYTE           N12     As3   v040
        BYTE   W12
        BYTE           N06     As3   v030
        BYTE   W06
        BYTE                   As3   v035
        BYTE   W06
        BYTE           N12     As3   v040
        BYTE   W12
        BYTE           N06     As3   v030
        BYTE   W06
        BYTE                   As3   v035
        BYTE   W06
        BYTE           N12     As3   v040
        BYTE   W12
        BYTE           N06     As3   v030
        BYTE   W06
        BYTE                   As3   v035
        BYTE   W06
// 067   ----------------------------------------
        BYTE           N48     As3   v030
        BYTE   W72
// 068   ----------------------------------------
        BYTE           N12     An3   v040
        BYTE   W12
        BYTE           N06     An3   v030
        BYTE   W06
        BYTE                   An3   v035
        BYTE   W06
        BYTE           N12     An3   v040
        BYTE   W12
        BYTE           N06     An3   v030
        BYTE   W06
        BYTE                   An3   v035
        BYTE   W06
        BYTE           N12     An3   v040
        BYTE   W12
        BYTE           N06     An3   v030
        BYTE   W06
        BYTE                   An3   v035
        BYTE   W06
// 069   ----------------------------------------
        BYTE           N48     An3   v030
        BYTE   W72
// 070   ----------------------------------------
        BYTE           N12     Gs3   v040
        BYTE   W12
        BYTE           N06     Gs3   v030
        BYTE   W06
        BYTE                   Gs3   v035
        BYTE   W06
        BYTE           N12     Gs3   v040
        BYTE   W12
        BYTE           N06     Gs3   v030
        BYTE   W06
        BYTE                   Gs3   v035
        BYTE   W06
        BYTE           N12     Gs3   v040
        BYTE   W12
        BYTE           N06     Gs3   v030
        BYTE   W06
        BYTE                   Gs3   v035
        BYTE   W06
// 071   ----------------------------------------
        BYTE           N48     Gs3   v030
        BYTE   W72
// 072   ----------------------------------------
        BYTE   GoTo
         POIN2  AtSkysEnd_1_LOOP
        BYTE   FINE

//****************** Track 2 (Midi-Chn.2) ******************//

AtSkysEnd_2:
        BYTE   KEYSH   AtSkysEnd_key+0
// 000   ----------------------------------------
        BYTE           VOICE   91
        BYTE           TIE     Cn3   v025
        BYTE           VOL     127
        BYTE   W72
// 001   ----------------------------------------
        BYTE   W72
// 002   ----------------------------------------
        BYTE           EOT
AtSkysEnd_2_LOOP:
        BYTE   W72
// 003   ----------------------------------------
        BYTE   W72
// 004   ----------------------------------------
        BYTE   W72
// 005   ----------------------------------------
        BYTE   W72
// 006   ----------------------------------------
        BYTE   W72
// 007   ----------------------------------------
        BYTE   W72
// 008   ----------------------------------------
        BYTE   W72
// 009   ----------------------------------------
        BYTE   W72
// 010   ----------------------------------------
        BYTE   W72
// 011   ----------------------------------------
        BYTE   W72
// 012   ----------------------------------------
        BYTE   W72
// 013   ----------------------------------------
        BYTE   W72
// 014   ----------------------------------------
        BYTE           TIE     Cn3   v025
        BYTE   W72
// 015   ----------------------------------------
        BYTE   W72
// 016   ----------------------------------------
AtSkysEnd_2_16:
        BYTE           EOT     Cn3
        BYTE           TIE     Gn2   v025
        BYTE   W72
        BYTE   PEND
// 017   ----------------------------------------
        BYTE   W72
// 018   ----------------------------------------
AtSkysEnd_2_18:
        BYTE           EOT     Gn2
        BYTE           TIE     Cn3   v025
        BYTE   W72
        BYTE   PEND
// 019   ----------------------------------------
        BYTE   W72
// 020   ----------------------------------------
        BYTE   PATT
         POIN2  AtSkysEnd_2_16
// 021   ----------------------------------------
        BYTE   W72
// 022   ----------------------------------------
        BYTE   PATT
         POIN2  AtSkysEnd_2_18
// 023   ----------------------------------------
        BYTE   W72
// 024   ----------------------------------------
        BYTE   PATT
         POIN2  AtSkysEnd_2_16
// 025   ----------------------------------------
        BYTE   W72
// 026   ----------------------------------------
        BYTE   PATT
         POIN2  AtSkysEnd_2_18
// 027   ----------------------------------------
        BYTE   W72
// 028   ----------------------------------------
        BYTE   PATT
         POIN2  AtSkysEnd_2_16
// 029   ----------------------------------------
        BYTE   W72
// 030   ----------------------------------------
        BYTE           EOT     Gn2
        BYTE   W72
// 031   ----------------------------------------
        BYTE   W72
// 032   ----------------------------------------
        BYTE   W72
// 033   ----------------------------------------
        BYTE   W72
// 034   ----------------------------------------
        BYTE   W72
// 035   ----------------------------------------
        BYTE   W72
// 036   ----------------------------------------
        BYTE   W72
// 037   ----------------------------------------
        BYTE   W72
// 038   ----------------------------------------
        BYTE   W96
// 039   ----------------------------------------
        BYTE   W96
// 040   ----------------------------------------
        BYTE   W96
// 041   ----------------------------------------
        BYTE   W96
// 042   ----------------------------------------
        BYTE   W96
// 043   ----------------------------------------
        BYTE   W96
// 044   ----------------------------------------
        BYTE   W96
// 045   ----------------------------------------
        BYTE   W96
// 046   ----------------------------------------
        BYTE   W96
// 047   ----------------------------------------
        BYTE   W96
// 048   ----------------------------------------
        BYTE   W96
// 049   ----------------------------------------
        BYTE   W96
// 050   ----------------------------------------
        BYTE   W72
// 051   ----------------------------------------
        BYTE   W72
// 052   ----------------------------------------
        BYTE   W72
// 053   ----------------------------------------
        BYTE   W72
// 054   ----------------------------------------
        BYTE   W72
// 055   ----------------------------------------
        BYTE   W72
// 056   ----------------------------------------
        BYTE   W72
// 057   ----------------------------------------
        BYTE   W72
// 058   ----------------------------------------
        BYTE   W72
// 059   ----------------------------------------
        BYTE   W72
// 060   ----------------------------------------
        BYTE   W72
// 061   ----------------------------------------
        BYTE   W72
// 062   ----------------------------------------
        BYTE   W72
// 063   ----------------------------------------
        BYTE   W72
// 064   ----------------------------------------
        BYTE   W72
// 065   ----------------------------------------
        BYTE   W72
// 066   ----------------------------------------
        BYTE   W72
// 067   ----------------------------------------
        BYTE   W72
// 068   ----------------------------------------
        BYTE   W72
// 069   ----------------------------------------
        BYTE   W72
// 070   ----------------------------------------
        BYTE   W72
// 071   ----------------------------------------
        BYTE   W72
// 072   ----------------------------------------
        BYTE   GoTo
         POIN2  AtSkysEnd_2_LOOP
        BYTE   FINE

//****************** Track 3 (Midi-Chn.3) ******************//

AtSkysEnd_3:
        BYTE   KEYSH   AtSkysEnd_key+0
// 000   ----------------------------------------
        BYTE           VOICE   52
        BYTE           VOL     127
        BYTE   W72
// 001   ----------------------------------------
        BYTE   W72
// 002   ----------------------------------------
AtSkysEnd_3_LOOP:
        BYTE   W72
// 003   ----------------------------------------
        BYTE   W72
// 004   ----------------------------------------
        BYTE   W72
// 005   ----------------------------------------
        BYTE   W72
// 006   ----------------------------------------
        BYTE   W72
// 007   ----------------------------------------
        BYTE   W72
// 008   ----------------------------------------
        BYTE   W72
// 009   ----------------------------------------
        BYTE   W72
// 010   ----------------------------------------
        BYTE   W72
// 011   ----------------------------------------
        BYTE   W72
// 012   ----------------------------------------
        BYTE   W72
// 013   ----------------------------------------
        BYTE   W72
// 014   ----------------------------------------
        BYTE   W72
// 015   ----------------------------------------
        BYTE   W72
// 016   ----------------------------------------
        BYTE   W72
// 017   ----------------------------------------
        BYTE   W72
// 018   ----------------------------------------
        BYTE   W72
// 019   ----------------------------------------
        BYTE   W72
// 020   ----------------------------------------
        BYTE   W72
// 021   ----------------------------------------
        BYTE   W72
// 022   ----------------------------------------
        BYTE   W72
// 023   ----------------------------------------
        BYTE   W72
// 024   ----------------------------------------
        BYTE   W72
// 025   ----------------------------------------
        BYTE   W72
// 026   ----------------------------------------
        BYTE   W72
// 027   ----------------------------------------
        BYTE   W72
// 028   ----------------------------------------
        BYTE   W72
// 029   ----------------------------------------
        BYTE   W72
// 030   ----------------------------------------
        BYTE   W72
// 031   ----------------------------------------
        BYTE   W72
// 032   ----------------------------------------
        BYTE   W72
// 033   ----------------------------------------
        BYTE   W72
// 034   ----------------------------------------
        BYTE   W72
// 035   ----------------------------------------
        BYTE   W72
// 036   ----------------------------------------
        BYTE   W72
// 037   ----------------------------------------
        BYTE   W24
        BYTE           N12     Ds4   v017
        BYTE           N12     Gn3
        BYTE           N12     As3
        BYTE           N12     Cs4
        BYTE   W12
        BYTE                   Ds4   v020
        BYTE           N12     Gn3
        BYTE           N12     As3
        BYTE           N12     Cs4
        BYTE   W12
        BYTE                   Ds4   v022
        BYTE           N12     Gn3
        BYTE           N12     As3
        BYTE           N12     Cs4
        BYTE   W12
        BYTE                   Ds4   v025
        BYTE           N12     Gn3
        BYTE           N12     As3
        BYTE           N12     Cs4
        BYTE   W12
// 038   ----------------------------------------
AtSkysEnd_3_38:
        BYTE           N96     Gs3   v017
        BYTE           N96     Ds4
        BYTE           N96     Bn3
        BYTE   W96
        BYTE   PEND
// 039   ----------------------------------------
        BYTE                   Ds4
        BYTE           N96     Gn3
        BYTE           N96     As3
        BYTE   W96
// 040   ----------------------------------------
        BYTE   PATT
         POIN2  AtSkysEnd_3_38
// 041   ----------------------------------------
        BYTE           N96     As3   v017
        BYTE           N96     Ds4
        BYTE           N96     Gn4
        BYTE   W96
// 042   ----------------------------------------
        BYTE   PATT
         POIN2  AtSkysEnd_3_38
// 043   ----------------------------------------
AtSkysEnd_3_43:
        BYTE           N96     As3   v017
        BYTE           N96     Ds4
        BYTE           N96     Gn3
        BYTE   W96
        BYTE   PEND
// 044   ----------------------------------------
AtSkysEnd_3_44:
        BYTE           N96     Bn3   v017
        BYTE           N96     Ds4
        BYTE           N96     Gs3
        BYTE   W96
        BYTE   PEND
// 045   ----------------------------------------
        BYTE                   Ds4
        BYTE           N96     Gn4
        BYTE           N96     As3
        BYTE   W96
// 046   ----------------------------------------
        BYTE   PATT
         POIN2  AtSkysEnd_3_44
// 047   ----------------------------------------
        BYTE   PATT
         POIN2  AtSkysEnd_3_43
// 048   ----------------------------------------
        BYTE   PATT
         POIN2  AtSkysEnd_3_38
// 049   ----------------------------------------
        BYTE           N24     As3   v017
        BYTE           N24     Gn4
        BYTE           N24     Ds4
        BYTE   W24
        BYTE                   En4
        BYTE           N24     Gs4
        BYTE           N24     Bn3
        BYTE   W24
        BYTE           N48     Cs4
        BYTE           N48     Fs4
        BYTE           N48     As4
        BYTE   W48
// 050   ----------------------------------------
        BYTE           N72     Bn3   v015
        BYTE           N72     Gn3
        BYTE           N72     En4
        BYTE   W72
// 051   ----------------------------------------
        BYTE                   Dn4
        BYTE           N72     Fs3
        BYTE           N72     An3
        BYTE   W72
// 052   ----------------------------------------
        BYTE                   Gn3
        BYTE           N72     En4
        BYTE           N72     Bn3
        BYTE   W72
// 053   ----------------------------------------
        BYTE                   Cn4
        BYTE           N72     En4
        BYTE           N72     Gn3
        BYTE   W72
// 054   ----------------------------------------
        BYTE                   En4
        BYTE           N72     Gn3
        BYTE           N72     Bn3
        BYTE   W72
// 055   ----------------------------------------
        BYTE                   Dn4
        BYTE           N72     An3
        BYTE           N72     Fs3
        BYTE   W72
// 056   ----------------------------------------
        BYTE                   Bn3
        BYTE           N72     En4
        BYTE           N72     Gn3
        BYTE   W72
// 057   ----------------------------------------
        BYTE                   Gn3
        BYTE           N72     En4
        BYTE           N72     Cn4
        BYTE   W72
// 058   ----------------------------------------
        BYTE   W72
// 059   ----------------------------------------
        BYTE   W72
// 060   ----------------------------------------
        BYTE   W72
// 061   ----------------------------------------
        BYTE   W72
// 062   ----------------------------------------
        BYTE   W72
// 063   ----------------------------------------
        BYTE   W72
// 064   ----------------------------------------
        BYTE   W72
// 065   ----------------------------------------
        BYTE   W72
// 066   ----------------------------------------
        BYTE   W72
// 067   ----------------------------------------
        BYTE   W72
// 068   ----------------------------------------
        BYTE   W72
// 069   ----------------------------------------
        BYTE   W72
// 070   ----------------------------------------
        BYTE   W72
// 071   ----------------------------------------
        BYTE   W72
// 072   ----------------------------------------
        BYTE   GoTo
         POIN2  AtSkysEnd_3_LOOP
        BYTE   FINE

//****************** Track 4 (Midi-Chn.4) ******************//

AtSkysEnd_4:
        BYTE   KEYSH   AtSkysEnd_key+0
// 000   ----------------------------------------
        BYTE           VOICE   60
        BYTE           VOL     127
        BYTE   W72
// 001   ----------------------------------------
        BYTE   W72
// 002   ----------------------------------------
AtSkysEnd_4_LOOP:
        BYTE   W72
// 003   ----------------------------------------
        BYTE   W72
// 004   ----------------------------------------
        BYTE   W72
// 005   ----------------------------------------
        BYTE   W72
// 006   ----------------------------------------
        BYTE   W72
// 007   ----------------------------------------
        BYTE   W72
// 008   ----------------------------------------
        BYTE   W72
// 009   ----------------------------------------
        BYTE   W72
// 010   ----------------------------------------
        BYTE   W72
// 011   ----------------------------------------
        BYTE   W72
// 012   ----------------------------------------
        BYTE   W72
// 013   ----------------------------------------
        BYTE   W72
// 014   ----------------------------------------
        BYTE           N72     Fn2   v030
        BYTE   W72
// 015   ----------------------------------------
        BYTE                   As2
        BYTE   W72
// 016   ----------------------------------------
        BYTE                   Cn3
        BYTE   W72
// 017   ----------------------------------------
        BYTE                   Cn3   v015
        BYTE   W72
// 018   ----------------------------------------
        BYTE                   Fn2   v030
        BYTE   W72
// 019   ----------------------------------------
        BYTE                   As2
        BYTE   W72
// 020   ----------------------------------------
        BYTE                   Gn2
        BYTE   W72
// 021   ----------------------------------------
        BYTE                   Gn2   v015
        BYTE   W72
// 022   ----------------------------------------
        BYTE                   Fn2   v030
        BYTE   W72
// 023   ----------------------------------------
        BYTE                   As2
        BYTE   W72
// 024   ----------------------------------------
        BYTE                   Cn3
        BYTE   W72
// 025   ----------------------------------------
        BYTE                   Cn3   v015
        BYTE   W72
// 026   ----------------------------------------
        BYTE                   Fn2   v030
        BYTE   W72
// 027   ----------------------------------------
        BYTE                   As2
        BYTE   W72
// 028   ----------------------------------------
        BYTE                   Gn2
        BYTE   W72
// 029   ----------------------------------------
        BYTE           N36     Gn2   v015
        BYTE   W48
        BYTE           N06     As2   v035
        BYTE   W06
        BYTE                   Gs2   v025
        BYTE   W06
        BYTE                   Fn2   v035
        BYTE   W06
        BYTE                   Cs2   v025
        BYTE   W06
// 030   ----------------------------------------
        BYTE   W72
// 031   ----------------------------------------
        BYTE   W72
// 032   ----------------------------------------
        BYTE   W72
// 033   ----------------------------------------
        BYTE   W72
// 034   ----------------------------------------
        BYTE   W72
// 035   ----------------------------------------
        BYTE   W72
// 036   ----------------------------------------
        BYTE   W72
// 037   ----------------------------------------
        BYTE   W72
// 038   ----------------------------------------
        BYTE   W96
// 039   ----------------------------------------
        BYTE   W96
// 040   ----------------------------------------
        BYTE   W96
// 041   ----------------------------------------
        BYTE   W96
// 042   ----------------------------------------
        BYTE   W96
// 043   ----------------------------------------
        BYTE   W96
// 044   ----------------------------------------
        BYTE   W96
// 045   ----------------------------------------
        BYTE   W96
// 046   ----------------------------------------
        BYTE   W96
// 047   ----------------------------------------
        BYTE   W96
// 048   ----------------------------------------
        BYTE   W96
// 049   ----------------------------------------
        BYTE   W96
// 050   ----------------------------------------
        BYTE   W72
// 051   ----------------------------------------
        BYTE   W72
// 052   ----------------------------------------
        BYTE   W72
// 053   ----------------------------------------
        BYTE   W72
// 054   ----------------------------------------
        BYTE   W72
// 055   ----------------------------------------
        BYTE   W72
// 056   ----------------------------------------
        BYTE   W72
// 057   ----------------------------------------
        BYTE   W72
// 058   ----------------------------------------
        BYTE           N72     Bn2
        BYTE   W72
// 059   ----------------------------------------
        BYTE                   Dn3
        BYTE   W72
// 060   ----------------------------------------
        BYTE                   En3
        BYTE   W72
// 061   ----------------------------------------
        BYTE                   Gn3
        BYTE   W72
// 062   ----------------------------------------
        BYTE                   An3
        BYTE   W72
// 063   ----------------------------------------
        BYTE                   Bn3
        BYTE   W72
// 064   ----------------------------------------
        BYTE                   Bn3   v015
        BYTE   W72
// 065   ----------------------------------------
        BYTE                   Bn3   v010
        BYTE   W72
// 066   ----------------------------------------
        BYTE                   As3   v015
        BYTE   W72
// 067   ----------------------------------------
        BYTE                   As3   v010
        BYTE   W72
// 068   ----------------------------------------
        BYTE                   An3   v015
        BYTE   W72
// 069   ----------------------------------------
        BYTE                   An3   v010
        BYTE   W72
// 070   ----------------------------------------
        BYTE                   Gs3   v015
        BYTE   W72
// 071   ----------------------------------------
        BYTE                   Gs3   v010
        BYTE   W72
// 072   ----------------------------------------
        BYTE   GoTo
         POIN2  AtSkysEnd_4_LOOP
        BYTE   FINE

//****************** Track 5 (Midi-Chn.5) ******************//

AtSkysEnd_5:
        BYTE   KEYSH   AtSkysEnd_key+0
// 000   ----------------------------------------
        BYTE           VOICE   56
        BYTE           VOL     127
        BYTE   W72
// 001   ----------------------------------------
        BYTE   W72
// 002   ----------------------------------------
AtSkysEnd_5_LOOP:
        BYTE           N06     Gn3   v050
        BYTE   W12
        BYTE                   Gn3   v025
        BYTE   W12
        BYTE                   Gn3   v035
        BYTE   W12
        BYTE                   Gn3   v025
        BYTE   W12
        BYTE                   Gn3   v035
        BYTE   W06
        BYTE                   Cn3   v025
        BYTE   W06
        BYTE                   Gn3   v035
        BYTE   W06
        BYTE                   Cn3   v025
        BYTE   W06
// 003   ----------------------------------------
AtSkysEnd_5_3:
        BYTE           N06     Gs3   v050
        BYTE   W12
        BYTE                   Gs3   v025
        BYTE   W12
        BYTE                   Gs3   v035
        BYTE   W12
        BYTE                   Gs3   v025
        BYTE   W12
        BYTE                   Gs3   v035
        BYTE   W06
        BYTE                   Cs3   v025
        BYTE   W06
        BYTE                   Gs3   v035
        BYTE   W06
        BYTE                   Cs3   v025
        BYTE   W06
        BYTE   PEND
// 004   ----------------------------------------
        BYTE                   Gn3   v050
        BYTE   W12
        BYTE                   Gn3   v025
        BYTE   W12
        BYTE                   Gn3   v035
        BYTE   W12
        BYTE                   Gn3   v025
        BYTE   W12
        BYTE                   Gn3   v035
        BYTE   W06
        BYTE                   Cn3   v025
        BYTE   W06
        BYTE                   Gn3   v035
        BYTE   W06
        BYTE                   Cn3   v025
        BYTE   W06
// 005   ----------------------------------------
        BYTE   PATT
         POIN2  AtSkysEnd_5_3
// 006   ----------------------------------------
AtSkysEnd_5_6:
        BYTE   W36
        BYTE           N06     Gn3   v025
        BYTE   W12
        BYTE                   Gn3   v035
        BYTE   W12
        BYTE                   Gn3
        BYTE   W12
        BYTE   PEND
// 007   ----------------------------------------
AtSkysEnd_5_7:
        BYTE   W36
        BYTE           N06     Gs3   v025
        BYTE   W12
        BYTE                   Gs3   v035
        BYTE   W12
        BYTE                   Gs3
        BYTE   W12
        BYTE   PEND
// 008   ----------------------------------------
        BYTE   PATT
         POIN2  AtSkysEnd_5_6
// 009   ----------------------------------------
        BYTE   PATT
         POIN2  AtSkysEnd_5_7
// 010   ----------------------------------------
        BYTE   PATT
         POIN2  AtSkysEnd_5_6
// 011   ----------------------------------------
        BYTE   PATT
         POIN2  AtSkysEnd_5_7
// 012   ----------------------------------------
        BYTE   PATT
         POIN2  AtSkysEnd_5_6
// 013   ----------------------------------------
        BYTE   W36
        BYTE           N06     Gs3   v025
        BYTE   W12
        BYTE                   Gs4   v035
        BYTE           N06     Gs3
        BYTE   W06
        BYTE                   Fs4   v025
        BYTE           N06     Fs3
        BYTE   W06
        BYTE                   Ds4   v035
        BYTE           N06     Ds3
        BYTE   W06
        BYTE                   Cn4   v025
        BYTE           N06     Cn3
        BYTE   W06
// 014   ----------------------------------------
        BYTE           N72     Cn4   v030
        BYTE   W72
// 015   ----------------------------------------
AtSkysEnd_5_15:
        BYTE           N36     Fn4   v030
        BYTE   W36
        BYTE           N12
        BYTE   W12
        BYTE                   Ds4
        BYTE   W12
        BYTE                   Cs4
        BYTE   W12
        BYTE   PEND
// 016   ----------------------------------------
        BYTE           N72     Cn4
        BYTE   W72
// 017   ----------------------------------------
        BYTE                   Cn4   v013
        BYTE   W72
// 018   ----------------------------------------
        BYTE   W72
// 019   ----------------------------------------
        BYTE   W72
// 020   ----------------------------------------
        BYTE   W72
// 021   ----------------------------------------
        BYTE   W72
// 022   ----------------------------------------
        BYTE                   Cn4   v030
        BYTE   W72
// 023   ----------------------------------------
        BYTE   PATT
         POIN2  AtSkysEnd_5_15
// 024   ----------------------------------------
        BYTE           N72     Cn4   v030
        BYTE   W72
// 025   ----------------------------------------
        BYTE           N68     Cn4   v013   gtp3
        BYTE   W72
// 026   ----------------------------------------
        BYTE   W72
// 027   ----------------------------------------
        BYTE   W72
// 028   ----------------------------------------
        BYTE   W72
// 029   ----------------------------------------
        BYTE   W72
// 030   ----------------------------------------
AtSkysEnd_5_30:
        BYTE   W36
        BYTE           N06     As3   v025
        BYTE   W12
        BYTE                   As3   v035
        BYTE   W12
        BYTE                   As3
        BYTE   W12
        BYTE   PEND
// 031   ----------------------------------------
AtSkysEnd_5_31:
        BYTE   W36
        BYTE           N06     Bn3   v025
        BYTE   W12
        BYTE                   Bn3   v035
        BYTE   W12
        BYTE                   Bn3
        BYTE   W12
        BYTE   PEND
// 032   ----------------------------------------
        BYTE   PATT
         POIN2  AtSkysEnd_5_30
// 033   ----------------------------------------
        BYTE   PATT
         POIN2  AtSkysEnd_5_31
// 034   ----------------------------------------
        BYTE   PATT
         POIN2  AtSkysEnd_5_30
// 035   ----------------------------------------
        BYTE   PATT
         POIN2  AtSkysEnd_5_31
// 036   ----------------------------------------
        BYTE   PATT
         POIN2  AtSkysEnd_5_30
// 037   ----------------------------------------
        BYTE   W24
        BYTE           N12     Ds3   v035
        BYTE           N12     Ds4
        BYTE   W12
        BYTE                   Cs3   v025
        BYTE           N12     Cs4
        BYTE   W12
        BYTE                   As2   v035
        BYTE           N12     As3
        BYTE   W12
        BYTE                   Gn3   v025
        BYTE           N12     Gn2
        BYTE   W12
// 038   ----------------------------------------
        BYTE   W96
// 039   ----------------------------------------
        BYTE   W96
// 040   ----------------------------------------
        BYTE   W96
// 041   ----------------------------------------
        BYTE   W96
// 042   ----------------------------------------
        BYTE   W96
// 043   ----------------------------------------
        BYTE   W96
// 044   ----------------------------------------
        BYTE   W96
// 045   ----------------------------------------
        BYTE   W96
// 046   ----------------------------------------
        BYTE   W96
// 047   ----------------------------------------
        BYTE   W96
// 048   ----------------------------------------
        BYTE   W96
// 049   ----------------------------------------
        BYTE   W96
// 050   ----------------------------------------
        BYTE   W72
// 051   ----------------------------------------
        BYTE   W72
// 052   ----------------------------------------
        BYTE   W72
// 053   ----------------------------------------
        BYTE   W72
// 054   ----------------------------------------
        BYTE   W72
// 055   ----------------------------------------
        BYTE   W72
// 056   ----------------------------------------
        BYTE   W72
// 057   ----------------------------------------
        BYTE   W72
// 058   ----------------------------------------
        BYTE   W72
// 059   ----------------------------------------
        BYTE   W72
// 060   ----------------------------------------
        BYTE   W72
// 061   ----------------------------------------
        BYTE   W72
// 062   ----------------------------------------
        BYTE   W72
// 063   ----------------------------------------
        BYTE   W72
// 064   ----------------------------------------
        BYTE           N06     En3
        BYTE   W12
        BYTE                   En3   v035
        BYTE   W18
        BYTE                   En3   v025
        BYTE   W06
        BYTE                   En3   v035
        BYTE   W12
        BYTE                   Gn3   v025
        BYTE   W06
        BYTE                   Fs3   v035
        BYTE   W12
        BYTE                   Dn3   v025
        BYTE   W06
// 065   ----------------------------------------
        BYTE                   En3
        BYTE   W12
        BYTE                   En3   v035
        BYTE   W06
        BYTE                   En3   v025
        BYTE   W06
        BYTE                   En3
        BYTE   W12
        BYTE                   En3   v035
        BYTE   W06
        BYTE                   En3   v025
        BYTE   W06
        BYTE                   En3
        BYTE   W12
        BYTE                   En3   v035
        BYTE   W06
        BYTE                   En3   v025
        BYTE   W06
// 066   ----------------------------------------
        BYTE                   Ds3
        BYTE   W12
        BYTE                   Ds3   v035
        BYTE   W18
        BYTE                   Ds3   v025
        BYTE   W06
        BYTE                   Ds3   v035
        BYTE   W12
        BYTE                   Fs3   v025
        BYTE   W06
        BYTE                   Fn3   v035
        BYTE   W12
        BYTE                   Cs3   v025
        BYTE   W06
// 067   ----------------------------------------
        BYTE                   Ds3
        BYTE   W12
        BYTE                   Ds3   v035
        BYTE   W06
        BYTE                   Ds3   v025
        BYTE   W06
        BYTE                   Ds3
        BYTE   W12
        BYTE                   Ds3   v035
        BYTE   W06
        BYTE                   Ds3   v025
        BYTE   W06
        BYTE                   Ds3
        BYTE   W12
        BYTE                   Ds3   v035
        BYTE   W06
        BYTE                   Ds3   v025
        BYTE   W06
// 068   ----------------------------------------
        BYTE                   Dn3
        BYTE   W12
        BYTE                   Dn3   v035
        BYTE   W18
        BYTE                   Dn3   v025
        BYTE   W06
        BYTE                   Dn3   v035
        BYTE   W12
        BYTE                   Fn3   v025
        BYTE   W06
        BYTE                   En3   v035
        BYTE   W12
        BYTE                   Cn3   v025
        BYTE   W06
// 069   ----------------------------------------
        BYTE                   Dn3
        BYTE   W12
        BYTE                   Dn3   v035
        BYTE   W06
        BYTE                   Dn3   v025
        BYTE   W06
        BYTE                   Dn3
        BYTE   W12
        BYTE                   Dn3   v035
        BYTE   W06
        BYTE                   Dn3   v025
        BYTE   W06
        BYTE                   Dn3
        BYTE   W12
        BYTE                   Dn3   v035
        BYTE   W06
        BYTE                   Dn3   v025
        BYTE   W06
// 070   ----------------------------------------
        BYTE                   Cs3
        BYTE   W12
        BYTE                   Cs3   v035
        BYTE   W18
        BYTE                   Cs3   v025
        BYTE   W06
        BYTE                   Cs3   v035
        BYTE   W12
        BYTE                   En3   v025
        BYTE   W06
        BYTE                   Ds3   v035
        BYTE   W12
        BYTE                   Bn2   v025
        BYTE   W06
// 071   ----------------------------------------
        BYTE                   Cs3
        BYTE   W12
        BYTE                   Cs3   v035
        BYTE   W06
        BYTE                   Cs3   v025
        BYTE   W06
        BYTE                   Cs3
        BYTE   W12
        BYTE                   Cs3   v035
        BYTE   W06
        BYTE                   Cs3   v025
        BYTE   W06
        BYTE                   Cs3
        BYTE   W12
        BYTE                   Cs3   v035
        BYTE   W06
        BYTE                   Cs3   v025
        BYTE   W06
// 072   ----------------------------------------
        BYTE   GoTo
         POIN2  AtSkysEnd_5_LOOP
        BYTE   FINE

//****************** Track 6 (Midi-Chn.6) ******************//

AtSkysEnd_6:
        BYTE   KEYSH   AtSkysEnd_key+0
// 000   ----------------------------------------
        BYTE           VOICE   65
        BYTE           VOL     127
        BYTE   W72
// 001   ----------------------------------------
        BYTE   W72
// 002   ----------------------------------------
AtSkysEnd_6_LOOP:
        BYTE   W72
// 003   ----------------------------------------
        BYTE   W72
// 004   ----------------------------------------
        BYTE   W72
// 005   ----------------------------------------
        BYTE   W72
// 006   ----------------------------------------
        BYTE   W72
// 007   ----------------------------------------
        BYTE   W72
// 008   ----------------------------------------
        BYTE   W72
// 009   ----------------------------------------
        BYTE   W72
// 010   ----------------------------------------
        BYTE   W72
// 011   ----------------------------------------
        BYTE   W72
// 012   ----------------------------------------
        BYTE   W72
// 013   ----------------------------------------
        BYTE   W72
// 014   ----------------------------------------
        BYTE   W72
// 015   ----------------------------------------
        BYTE   W72
// 016   ----------------------------------------
        BYTE   W72
// 017   ----------------------------------------
        BYTE   W72
// 018   ----------------------------------------
        BYTE   W72
// 019   ----------------------------------------
        BYTE   W72
// 020   ----------------------------------------
        BYTE   W72
// 021   ----------------------------------------
        BYTE   W72
// 022   ----------------------------------------
        BYTE   W72
// 023   ----------------------------------------
        BYTE   W72
// 024   ----------------------------------------
        BYTE   W72
// 025   ----------------------------------------
        BYTE   W72
// 026   ----------------------------------------
        BYTE   W72
// 027   ----------------------------------------
        BYTE   W72
// 028   ----------------------------------------
        BYTE   W72
// 029   ----------------------------------------
        BYTE   W72
// 030   ----------------------------------------
        BYTE   W72
// 031   ----------------------------------------
        BYTE   W72
// 032   ----------------------------------------
        BYTE   W72
// 033   ----------------------------------------
        BYTE   W72
// 034   ----------------------------------------
        BYTE   W72
// 035   ----------------------------------------
        BYTE   W72
// 036   ----------------------------------------
        BYTE   W72
// 037   ----------------------------------------
        BYTE   W72
// 038   ----------------------------------------
AtSkysEnd_6_38:
        BYTE           N12     Gs2   v045
        BYTE   W12
        BYTE           N06     As2   v040
        BYTE   W06
        BYTE                   Bn2   v035
        BYTE   W06
        BYTE                   Gs2   v040
        BYTE   W18
        BYTE                   As2
        BYTE   W06
        BYTE                   Bn2   v035
        BYTE   W06
        BYTE                   Gs2
        BYTE   W12
        BYTE           N12     Gn2
        BYTE   W12
        BYTE           N06     En2
        BYTE   W12
        BYTE                   Ds2
        BYTE   W06
        BYTE   PEND
// 039   ----------------------------------------
AtSkysEnd_6_39:
        BYTE   W24
        BYTE           N06     Gn2   v040
        BYTE   W18
        BYTE                   Gs2   v035
        BYTE   W06
        BYTE                   As2   v040
        BYTE   W06
        BYTE           N12     Gn2   v035
        BYTE   W12
        BYTE           N06     En2
        BYTE   W12
        BYTE                   Ds2
        BYTE   W12
        BYTE                   Cs2
        BYTE   W06
        BYTE   PEND
// 040   ----------------------------------------
AtSkysEnd_6_40:
        BYTE   W24
        BYTE           N06     Gs2   v040
        BYTE   W18
        BYTE                   As2   v035
        BYTE   W06
        BYTE                   Bn2   v040
        BYTE   W06
        BYTE           N12     En3   v035
        BYTE   W12
        BYTE                   Ds3
        BYTE   W12
        BYTE           N06     Gs3
        BYTE   W12
        BYTE                   Gn3
        BYTE   W06
        BYTE   PEND
// 041   ----------------------------------------
AtSkysEnd_6_41:
        BYTE           N24     Ds3   v040
        BYTE   W24
        BYTE           N06     En3   v037
        BYTE   W06
        BYTE           N12     Ds3   v035
        BYTE   W12
        BYTE           N06     Cs3
        BYTE   W12
        BYTE                   Bn2
        BYTE   W12
        BYTE                   As2
        BYTE   W12
        BYTE                   Gs2
        BYTE   W12
        BYTE                   Gn2
        BYTE   W06
        BYTE   PEND
// 042   ----------------------------------------
        BYTE   PATT
         POIN2  AtSkysEnd_6_38
// 043   ----------------------------------------
        BYTE   PATT
         POIN2  AtSkysEnd_6_39
// 044   ----------------------------------------
        BYTE   PATT
         POIN2  AtSkysEnd_6_40
// 045   ----------------------------------------
        BYTE   PATT
         POIN2  AtSkysEnd_6_41
// 046   ----------------------------------------
        BYTE   PATT
         POIN2  AtSkysEnd_6_38
// 047   ----------------------------------------
        BYTE           N06     Cs2   v035
        BYTE   W06
        BYTE                   Bn1   v030
        BYTE   W06
        BYTE                   Cs2
        BYTE   W06
        BYTE                   En2
        BYTE   W06
        BYTE                   Gn2   v040
        BYTE   W06
        BYTE                   Gs2   v030
        BYTE   W06
        BYTE                   As2
        BYTE   W06
        BYTE                   Gs2   v035
        BYTE   W06
        BYTE                   As2   v040
        BYTE   W06
        BYTE           N12     Ds3   v035
        BYTE   W12
        BYTE           N06     Cs3
        BYTE   W06
        BYTE                   Ds3   v030
        BYTE   W06
        BYTE                   Bn2   v035
        BYTE   W06
        BYTE                   Ds3   v030
        BYTE   W06
        BYTE                   En3   v035
        BYTE   W06
// 048   ----------------------------------------
        BYTE           N12     Gs3   v045
        BYTE   W12
        BYTE           N06     Gn3   v040
        BYTE   W06
        BYTE                   En3   v035
        BYTE   W06
        BYTE                   Ds3   v040
        BYTE   W06
        BYTE                   En3   v030
        BYTE   W06
        BYTE                   Gn3
        BYTE   W06
        BYTE                   Gs3   v040
        BYTE   W06
        BYTE                   Gn3   v035
        BYTE   W06
        BYTE                   Gs3
        BYTE   W12
        BYTE           N12     Gn3
        BYTE   W12
        BYTE           N06     En3
        BYTE   W06
        BYTE                   Ds3   v030
        BYTE   W06
        BYTE                   Cs3   v035
        BYTE   W06
// 049   ----------------------------------------
        BYTE           N72     Ds3   v030
        BYTE   W96
// 050   ----------------------------------------
        BYTE   W72
// 051   ----------------------------------------
        BYTE   W72
// 052   ----------------------------------------
        BYTE   W72
// 053   ----------------------------------------
        BYTE   W72
// 054   ----------------------------------------
        BYTE   W72
// 055   ----------------------------------------
        BYTE   W72
// 056   ----------------------------------------
        BYTE   W72
// 057   ----------------------------------------
        BYTE   W72
// 058   ----------------------------------------
        BYTE   W72
// 059   ----------------------------------------
        BYTE   W72
// 060   ----------------------------------------
        BYTE   W72
// 061   ----------------------------------------
        BYTE   W72
// 062   ----------------------------------------
        BYTE   W72
// 063   ----------------------------------------
        BYTE   W72
// 064   ----------------------------------------
        BYTE   W72
// 065   ----------------------------------------
        BYTE   W72
// 066   ----------------------------------------
        BYTE   W72
// 067   ----------------------------------------
        BYTE   W72
// 068   ----------------------------------------
        BYTE   W72
// 069   ----------------------------------------
        BYTE   W72
// 070   ----------------------------------------
        BYTE   W72
// 071   ----------------------------------------
        BYTE   W72
// 072   ----------------------------------------
        BYTE   GoTo
         POIN2  AtSkysEnd_6_LOOP
        BYTE   FINE

//****************** Track 7 (Midi-Chn.7) ******************//

AtSkysEnd_7:
        BYTE   KEYSH   AtSkysEnd_key+0
// 000   ----------------------------------------
        BYTE           VOICE   49
        BYTE           N06     Cn1   v050
        BYTE           VOL     127
        BYTE   W12
        BYTE           N06     Cn1   v025
        BYTE   W12
        BYTE                   Cn1   v035
        BYTE   W12
        BYTE                   Cn1   v025
        BYTE   W12
        BYTE                   Cn1   v035
        BYTE   W12
        BYTE                   Cn1   v025
        BYTE   W06
        BYTE                   Cn1   v035
        BYTE   W06
// 001   ----------------------------------------
AtSkysEnd_7_1:
        BYTE           N06     Cs1   v050
        BYTE   W12
        BYTE                   Cs1   v025
        BYTE   W12
        BYTE                   Cs1   v035
        BYTE   W12
        BYTE                   Cs1   v025
        BYTE   W12
        BYTE                   Cs1   v035
        BYTE   W12
        BYTE                   Cs1   v025
        BYTE   W06
        BYTE                   Cs1   v035
        BYTE   W06
        BYTE   PEND
// 002   ----------------------------------------
AtSkysEnd_7_LOOP:
        BYTE           N06     Cn1   v050
        BYTE   W12
        BYTE                   Cn1   v025
        BYTE   W12
        BYTE                   Cn1   v035
        BYTE   W12
        BYTE                   Cn1   v025
        BYTE   W12
        BYTE                   Cn1   v035
        BYTE   W12
        BYTE                   Cn1   v025
        BYTE   W06
        BYTE                   Cn1   v035
        BYTE   W06
// 003   ----------------------------------------
        BYTE   PATT
         POIN2  AtSkysEnd_7_1
// 004   ----------------------------------------
AtSkysEnd_7_4:
        BYTE           N06     Cn1   v050
        BYTE   W12
        BYTE                   Cn1   v025
        BYTE   W12
        BYTE                   Cn1   v035
        BYTE   W12
        BYTE                   Cn1   v025
        BYTE   W12
        BYTE                   Cn1   v035
        BYTE   W12
        BYTE                   Cn1   v025
        BYTE   W06
        BYTE                   Cn1   v035
        BYTE   W06
        BYTE   PEND
// 005   ----------------------------------------
        BYTE   PATT
         POIN2  AtSkysEnd_7_1
// 006   ----------------------------------------
        BYTE   PATT
         POIN2  AtSkysEnd_7_4
// 007   ----------------------------------------
        BYTE   PATT
         POIN2  AtSkysEnd_7_1
// 008   ----------------------------------------
        BYTE   PATT
         POIN2  AtSkysEnd_7_4
// 009   ----------------------------------------
        BYTE   PATT
         POIN2  AtSkysEnd_7_1
// 010   ----------------------------------------
        BYTE   PATT
         POIN2  AtSkysEnd_7_4
// 011   ----------------------------------------
        BYTE   PATT
         POIN2  AtSkysEnd_7_1
// 012   ----------------------------------------
        BYTE   PATT
         POIN2  AtSkysEnd_7_4
// 013   ----------------------------------------
        BYTE   PATT
         POIN2  AtSkysEnd_7_1
// 014   ----------------------------------------
AtSkysEnd_7_14:
        BYTE           N06     Fn1   v050
        BYTE   W06
        BYTE                   Fn1   v035
        BYTE   W18
        BYTE                   Fn1
        BYTE   W24
        BYTE                   Fn1
        BYTE   W24
        BYTE   PEND
// 015   ----------------------------------------
AtSkysEnd_7_15:
        BYTE           N06     Fs1   v050
        BYTE   W06
        BYTE                   Fs1   v035
        BYTE   W18
        BYTE                   Fs1
        BYTE   W24
        BYTE                   Fs1
        BYTE   W24
        BYTE   PEND
// 016   ----------------------------------------
        BYTE   PATT
         POIN2  AtSkysEnd_7_14
// 017   ----------------------------------------
AtSkysEnd_7_17:
        BYTE           N06     Ds1   v050
        BYTE   W06
        BYTE                   Ds1   v035
        BYTE   W18
        BYTE                   Ds1
        BYTE   W24
        BYTE                   Ds1
        BYTE   W24
        BYTE   PEND
// 018   ----------------------------------------
        BYTE   PATT
         POIN2  AtSkysEnd_7_14
// 019   ----------------------------------------
        BYTE   PATT
         POIN2  AtSkysEnd_7_15
// 020   ----------------------------------------
        BYTE   PATT
         POIN2  AtSkysEnd_7_14
// 021   ----------------------------------------
        BYTE   PATT
         POIN2  AtSkysEnd_7_17
// 022   ----------------------------------------
        BYTE   PATT
         POIN2  AtSkysEnd_7_14
// 023   ----------------------------------------
        BYTE   PATT
         POIN2  AtSkysEnd_7_15
// 024   ----------------------------------------
        BYTE   PATT
         POIN2  AtSkysEnd_7_14
// 025   ----------------------------------------
        BYTE   PATT
         POIN2  AtSkysEnd_7_17
// 026   ----------------------------------------
        BYTE   PATT
         POIN2  AtSkysEnd_7_14
// 027   ----------------------------------------
        BYTE   PATT
         POIN2  AtSkysEnd_7_15
// 028   ----------------------------------------
        BYTE   PATT
         POIN2  AtSkysEnd_7_14
// 029   ----------------------------------------
        BYTE           N06     Ds1   v050
        BYTE   W06
        BYTE                   Ds1   v035
        BYTE   W18
        BYTE                   Ds1
        BYTE   W24
        BYTE                   As1
        BYTE           N06     As2
        BYTE           N06     Ds1
        BYTE   W06
        BYTE                   Gs1   v025
        BYTE           N06     Gs2
        BYTE   W06
        BYTE                   Fn1   v035
        BYTE           N06     Fn2
        BYTE   W06
        BYTE                   Cs1   v025
        BYTE           N06     Cs2
        BYTE   W06
// 030   ----------------------------------------
AtSkysEnd_7_30:
        BYTE           N06     Ds1   v050
        BYTE   W12
        BYTE                   Ds1   v025
        BYTE   W12
        BYTE                   Ds1   v035
        BYTE   W12
        BYTE                   Ds1   v025
        BYTE   W12
        BYTE                   Ds1   v035
        BYTE   W12
        BYTE                   Ds1   v025
        BYTE   W06
        BYTE                   Ds1   v035
        BYTE   W06
        BYTE   PEND
// 031   ----------------------------------------
AtSkysEnd_7_31:
        BYTE           N06     En1   v050
        BYTE   W12
        BYTE                   En1   v025
        BYTE   W12
        BYTE                   En1   v035
        BYTE   W12
        BYTE                   En1   v025
        BYTE   W12
        BYTE                   En1   v035
        BYTE   W12
        BYTE                   En1   v025
        BYTE   W06
        BYTE                   En1   v035
        BYTE   W06
        BYTE   PEND
// 032   ----------------------------------------
        BYTE   PATT
         POIN2  AtSkysEnd_7_30
// 033   ----------------------------------------
        BYTE   PATT
         POIN2  AtSkysEnd_7_31
// 034   ----------------------------------------
        BYTE   PATT
         POIN2  AtSkysEnd_7_30
// 035   ----------------------------------------
        BYTE   PATT
         POIN2  AtSkysEnd_7_31
// 036   ----------------------------------------
        BYTE   PATT
         POIN2  AtSkysEnd_7_30
// 037   ----------------------------------------
        BYTE           N06     En1   v050
        BYTE   W72
// 038   ----------------------------------------
AtSkysEnd_7_38:
        BYTE           N18     Gs1   v040
        BYTE   W18
        BYTE                   Gs1   v020
        BYTE   W18
        BYTE                   Gs1   v030
        BYTE   W18
        BYTE                   Gs1   v020
        BYTE   W18
        BYTE           N12     Gs1   v030
        BYTE   W12
        BYTE                   Gs1   v020
        BYTE   W12
        BYTE   PEND
// 039   ----------------------------------------
AtSkysEnd_7_39:
        BYTE           N18     Gn1   v040
        BYTE   W18
        BYTE                   Gn1   v020
        BYTE   W18
        BYTE                   Gn1   v030
        BYTE   W18
        BYTE                   Gn1   v020
        BYTE   W18
        BYTE           N12     Gn1   v030
        BYTE   W12
        BYTE                   Gn1   v020
        BYTE   W12
        BYTE   PEND
// 040   ----------------------------------------
        BYTE   PATT
         POIN2  AtSkysEnd_7_38
// 041   ----------------------------------------
        BYTE   PATT
         POIN2  AtSkysEnd_7_39
// 042   ----------------------------------------
        BYTE   PATT
         POIN2  AtSkysEnd_7_38
// 043   ----------------------------------------
        BYTE   PATT
         POIN2  AtSkysEnd_7_39
// 044   ----------------------------------------
        BYTE   PATT
         POIN2  AtSkysEnd_7_38
// 045   ----------------------------------------
        BYTE   PATT
         POIN2  AtSkysEnd_7_39
// 046   ----------------------------------------
        BYTE   PATT
         POIN2  AtSkysEnd_7_38
// 047   ----------------------------------------
        BYTE   PATT
         POIN2  AtSkysEnd_7_39
// 048   ----------------------------------------
        BYTE   PATT
         POIN2  AtSkysEnd_7_38
// 049   ----------------------------------------
        BYTE           N24     As1   v040
        BYTE   W24
        BYTE                   Bn1
        BYTE   W24
        BYTE           N48     Cs2
        BYTE   W48
// 050   ----------------------------------------
AtSkysEnd_7_50:
        BYTE           N06     En1   v050
        BYTE   W24
        BYTE                   En1   v035
        BYTE   W24
        BYTE                   En1
        BYTE   W24
        BYTE   PEND
// 051   ----------------------------------------
AtSkysEnd_7_51:
        BYTE           N06     Dn1   v050
        BYTE   W24
        BYTE                   Dn1   v035
        BYTE   W24
        BYTE                   Dn1
        BYTE   W24
        BYTE   PEND
// 052   ----------------------------------------
        BYTE   PATT
         POIN2  AtSkysEnd_7_50
// 053   ----------------------------------------
AtSkysEnd_7_53:
        BYTE           N06     Cn1   v050
        BYTE   W24
        BYTE                   Cn1   v035
        BYTE   W24
        BYTE                   Cn1
        BYTE   W24
        BYTE   PEND
// 054   ----------------------------------------
        BYTE   PATT
         POIN2  AtSkysEnd_7_50
// 055   ----------------------------------------
        BYTE   PATT
         POIN2  AtSkysEnd_7_51
// 056   ----------------------------------------
        BYTE   PATT
         POIN2  AtSkysEnd_7_50
// 057   ----------------------------------------
        BYTE   PATT
         POIN2  AtSkysEnd_7_53
// 058   ----------------------------------------
        BYTE   PATT
         POIN2  AtSkysEnd_7_50
// 059   ----------------------------------------
        BYTE   PATT
         POIN2  AtSkysEnd_7_51
// 060   ----------------------------------------
        BYTE   PATT
         POIN2  AtSkysEnd_7_50
// 061   ----------------------------------------
        BYTE   PATT
         POIN2  AtSkysEnd_7_53
// 062   ----------------------------------------
        BYTE   PATT
         POIN2  AtSkysEnd_7_50
// 063   ----------------------------------------
        BYTE           N06     An1   v050
        BYTE   W72
// 064   ----------------------------------------
        BYTE   PATT
         POIN2  AtSkysEnd_7_31
// 065   ----------------------------------------
        BYTE   PATT
         POIN2  AtSkysEnd_7_31
// 066   ----------------------------------------
        BYTE   PATT
         POIN2  AtSkysEnd_7_30
// 067   ----------------------------------------
        BYTE   PATT
         POIN2  AtSkysEnd_7_30
// 068   ----------------------------------------
AtSkysEnd_7_68:
        BYTE           N06     Dn1   v050
        BYTE   W12
        BYTE                   Dn1   v025
        BYTE   W12
        BYTE                   Dn1   v035
        BYTE   W12
        BYTE                   Dn1   v025
        BYTE   W12
        BYTE                   Dn1   v035
        BYTE   W12
        BYTE                   Dn1   v025
        BYTE   W06
        BYTE                   Dn1   v035
        BYTE   W06
        BYTE   PEND
// 069   ----------------------------------------
        BYTE   PATT
         POIN2  AtSkysEnd_7_68
// 070   ----------------------------------------
        BYTE   PATT
         POIN2  AtSkysEnd_7_1
// 071   ----------------------------------------
        BYTE   PATT
         POIN2  AtSkysEnd_7_1
// 072   ----------------------------------------
        BYTE   GoTo
         POIN2  AtSkysEnd_7_LOOP
        BYTE   FINE

//****************** Track 8 (Midi-Chn.8) ******************//

AtSkysEnd_8:
        BYTE   KEYSH   AtSkysEnd_key+0
// 000   ----------------------------------------
        BYTE           VOICE   127
        BYTE           N06     Dn1   v045
        BYTE           VOL     127
        BYTE   W06
        BYTE           N06     Dn1   v015
        BYTE   W06
        BYTE                   Dn1   v035
        BYTE   W06
        BYTE                   Dn1   v015
        BYTE   W06
        BYTE                   Dn1   v035
        BYTE   W06
        BYTE                   Dn1   v015
        BYTE   W06
        BYTE                   Dn1   v039
        BYTE   W06
        BYTE                   Dn1   v015
        BYTE   W06
        BYTE                   Dn1   v035
        BYTE   W06
        BYTE                   Dn1   v015
        BYTE   W06
        BYTE                   Dn1   v035
        BYTE   W06
        BYTE                   Ds1
        BYTE   W06
// 001   ----------------------------------------
AtSkysEnd_8_1:
        BYTE           N06     Dn1   v045
        BYTE   W06
        BYTE                   Dn1   v015
        BYTE   W06
        BYTE                   Dn1   v035
        BYTE   W06
        BYTE                   Dn1   v015
        BYTE   W06
        BYTE                   Dn1   v035
        BYTE   W06
        BYTE                   Dn1   v015
        BYTE   W06
        BYTE                   Dn1   v039
        BYTE   W06
        BYTE                   Dn1   v015
        BYTE   W06
        BYTE                   Dn1   v035
        BYTE   W06
        BYTE                   Dn1   v015
        BYTE   W06
        BYTE                   Dn1   v035
        BYTE   W06
        BYTE                   Ds1
        BYTE   W06
        BYTE   PEND
// 002   ----------------------------------------
AtSkysEnd_8_LOOP:
        BYTE           N06     Dn1   v045
        BYTE   W06
        BYTE                   Dn1   v015
        BYTE   W06
        BYTE                   Dn1   v035
        BYTE   W06
        BYTE                   Dn1   v015
        BYTE   W06
        BYTE                   Dn1   v035
        BYTE   W06
        BYTE                   Dn1   v015
        BYTE   W06
        BYTE                   Dn1   v039
        BYTE   W06
        BYTE                   Dn1   v015
        BYTE   W06
        BYTE                   Dn1   v035
        BYTE   W06
        BYTE                   Dn1   v015
        BYTE   W06
        BYTE                   Dn1   v035
        BYTE   W06
        BYTE                   Ds1
        BYTE   W06
// 003   ----------------------------------------
        BYTE   PATT
         POIN2  AtSkysEnd_8_1
// 004   ----------------------------------------
        BYTE   PATT
         POIN2  AtSkysEnd_8_1
// 005   ----------------------------------------
        BYTE           N06     Dn1   v045
        BYTE   W06
        BYTE                   Dn1   v015
        BYTE   W06
        BYTE                   Dn1   v035
        BYTE   W06
        BYTE                   Dn1   v015
        BYTE   W06
        BYTE                   Dn1   v035
        BYTE   W06
        BYTE                   Dn1   v015
        BYTE   W06
        BYTE                   Dn1   v039
        BYTE   W06
        BYTE                   Dn1   v015
        BYTE   W06
        BYTE           N24     En2   v045
        BYTE           N06     Dn1   v035
        BYTE   W06
        BYTE                   Dn1   v015
        BYTE   W06
        BYTE                   Dn1   v035
        BYTE   W06
        BYTE                   Ds1
        BYTE   W06
// 006   ----------------------------------------
        BYTE           N72     Fn2   v045
        BYTE           N12     Dn1
        BYTE   W12
        BYTE           N06     Fs1   v040
        BYTE   W12
        BYTE           N12     Dn1   v035
        BYTE   W12
        BYTE           N06     Fs1   v040
        BYTE   W06
        BYTE                   Fs1   v035
        BYTE   W06
        BYTE           N12     Dn1
        BYTE   W12
        BYTE                   Ds1   v045
        BYTE   W12
// 007   ----------------------------------------
AtSkysEnd_8_7:
        BYTE           N12     Dn1   v045
        BYTE   W12
        BYTE           N06     Fs1   v040
        BYTE   W12
        BYTE                   Dn1   v035
        BYTE   W06
        BYTE                   Dn1   v030
        BYTE   W06
        BYTE                   Fs1   v040
        BYTE   W06
        BYTE                   Fs1   v035
        BYTE   W06
        BYTE           N12     Dn1
        BYTE   W12
        BYTE                   Ds1   v045
        BYTE   W12
        BYTE   PEND
// 008   ----------------------------------------
AtSkysEnd_8_8:
        BYTE           N12     Dn1   v045
        BYTE   W12
        BYTE           N06     Fs1   v040
        BYTE   W12
        BYTE           N12     Dn1   v035
        BYTE   W12
        BYTE           N06     Fs1   v040
        BYTE   W06
        BYTE                   Fs1   v035
        BYTE   W06
        BYTE           N12     Dn1
        BYTE   W12
        BYTE                   Ds1   v045
        BYTE   W12
        BYTE   PEND
// 009   ----------------------------------------
        BYTE   PATT
         POIN2  AtSkysEnd_8_7
// 010   ----------------------------------------
        BYTE   PATT
         POIN2  AtSkysEnd_8_8
// 011   ----------------------------------------
        BYTE   PATT
         POIN2  AtSkysEnd_8_7
// 012   ----------------------------------------
        BYTE   PATT
         POIN2  AtSkysEnd_8_8
// 013   ----------------------------------------
        BYTE           N12     Dn1   v045
        BYTE   W12
        BYTE           N06     Fs1   v040
        BYTE   W12
        BYTE                   Cn2   v045
        BYTE   W06
        BYTE                   An1
        BYTE   W06
        BYTE                   Cn2
        BYTE   W06
        BYTE                   Gn1   v035
        BYTE   W06
        BYTE           N24     En2   v045
        BYTE           N06     Bn1
        BYTE   W06
        BYTE                   Gn1   v035
        BYTE   W06
        BYTE           N03     An1   v045
        BYTE   W03
        BYTE                   Gn1   v035
        BYTE   W03
        BYTE                   An1   v045
        BYTE   W03
        BYTE                   Gn1   v035
        BYTE   W03
// 014   ----------------------------------------
        BYTE           N72     Fn2   v050
        BYTE           N12     Dn1   v040
        BYTE           N12     En1
        BYTE   W24
        BYTE                   Dn1   v035
        BYTE   W24
        BYTE                   Dn1
        BYTE   W12
        BYTE                   Ds1   v030
        BYTE   W12
// 015   ----------------------------------------
AtSkysEnd_8_15:
        BYTE           N12     En1   v040
        BYTE           N12     Dn1
        BYTE   W24
        BYTE                   Dn1   v035
        BYTE   W24
        BYTE                   Dn1
        BYTE   W12
        BYTE                   Ds1   v030
        BYTE   W12
        BYTE   PEND
// 016   ----------------------------------------
AtSkysEnd_8_16:
        BYTE           N12     Dn1   v040
        BYTE           N12     En1
        BYTE   W24
        BYTE                   Dn1   v035
        BYTE   W24
        BYTE                   Dn1
        BYTE   W12
        BYTE                   Ds1   v030
        BYTE   W12
        BYTE   PEND
// 017   ----------------------------------------
        BYTE   PATT
         POIN2  AtSkysEnd_8_15
// 018   ----------------------------------------
        BYTE   PATT
         POIN2  AtSkysEnd_8_16
// 019   ----------------------------------------
        BYTE   PATT
         POIN2  AtSkysEnd_8_15
// 020   ----------------------------------------
        BYTE   PATT
         POIN2  AtSkysEnd_8_16
// 021   ----------------------------------------
        BYTE   PATT
         POIN2  AtSkysEnd_8_15
// 022   ----------------------------------------
AtSkysEnd_8_22:
        BYTE           N12     Dn1   v040
        BYTE           N12     En1
        BYTE           N06     Fs1   v030
        BYTE   W06
        BYTE                   Fs1   v020
        BYTE   W06
        BYTE                   Fs1   v025
        BYTE   W06
        BYTE                   Fs1   v020
        BYTE   W06
        BYTE           N12     Dn1   v035
        BYTE           N06     Fs1   v025
        BYTE   W06
        BYTE                   Fs1   v020
        BYTE   W06
        BYTE                   Fs1   v025
        BYTE   W06
        BYTE                   Fs1   v020
        BYTE   W06
        BYTE           N12     Dn1   v035
        BYTE           N06     Fs1   v025
        BYTE   W06
        BYTE                   Fs1   v020
        BYTE   W06
        BYTE           N12     Ds1   v030
        BYTE           N06     Fs1   v025
        BYTE   W06
        BYTE                   Fs1   v020
        BYTE   W06
        BYTE   PEND
// 023   ----------------------------------------
        BYTE   PATT
         POIN2  AtSkysEnd_8_22
// 024   ----------------------------------------
AtSkysEnd_8_24:
        BYTE           N12     En1   v040
        BYTE           N12     Dn1
        BYTE           N06     Fs1   v030
        BYTE   W06
        BYTE                   Fs1   v020
        BYTE   W06
        BYTE                   Fs1   v025
        BYTE   W06
        BYTE                   Fs1   v020
        BYTE   W06
        BYTE           N12     Dn1   v035
        BYTE           N06     Fs1   v025
        BYTE   W06
        BYTE                   Fs1   v020
        BYTE   W06
        BYTE                   Fs1   v025
        BYTE   W06
        BYTE                   Fs1   v020
        BYTE   W06
        BYTE           N12     Dn1   v035
        BYTE           N06     Fs1   v025
        BYTE   W06
        BYTE                   Fs1   v020
        BYTE   W06
        BYTE           N12     Ds1   v030
        BYTE           N06     Fs1   v025
        BYTE   W06
        BYTE                   Fs1   v020
        BYTE   W06
        BYTE   PEND
// 025   ----------------------------------------
        BYTE   PATT
         POIN2  AtSkysEnd_8_22
// 026   ----------------------------------------
        BYTE   PATT
         POIN2  AtSkysEnd_8_24
// 027   ----------------------------------------
        BYTE   PATT
         POIN2  AtSkysEnd_8_22
// 028   ----------------------------------------
        BYTE   PATT
         POIN2  AtSkysEnd_8_24
// 029   ----------------------------------------
        BYTE           N12     Dn1   v040
        BYTE           N12     En1
        BYTE   W24
        BYTE                   Dn1   v035
        BYTE           N12     En1   v040
        BYTE   W12
        BYTE                   Dn1   v035
        BYTE           N12     En1   v040
        BYTE   W12
        BYTE           N06     Dn1   v035
        BYTE           N24     En2   v045
        BYTE           N06     En1   v035
        BYTE   W06
        BYTE                   Dn1
        BYTE           N06     En1
        BYTE   W06
        BYTE                   Dn1
        BYTE           N06     En1
        BYTE   W06
        BYTE                   Dn1
        BYTE           N06     En1
        BYTE   W06
// 030   ----------------------------------------
        BYTE           N12     Dn1   v045
        BYTE           N72     Fn2
        BYTE   W12
        BYTE           N06     Fs1   v040
        BYTE   W12
        BYTE           N12     Dn1   v035
        BYTE   W12
        BYTE           N06     Fs1   v040
        BYTE   W06
        BYTE                   Fs1   v035
        BYTE   W06
        BYTE           N12     Dn1
        BYTE   W12
        BYTE                   Ds1   v040
        BYTE   W12
// 031   ----------------------------------------
AtSkysEnd_8_31:
        BYTE           N12     Dn1   v045
        BYTE   W12
        BYTE           N06     Fs1   v040
        BYTE   W12
        BYTE                   Dn1   v035
        BYTE   W06
        BYTE                   Dn1   v030
        BYTE   W06
        BYTE                   Fs1   v040
        BYTE   W06
        BYTE                   Fs1   v035
        BYTE   W06
        BYTE           N12     Dn1
        BYTE   W12
        BYTE                   Ds1   v040
        BYTE   W12
        BYTE   PEND
// 032   ----------------------------------------
AtSkysEnd_8_32:
        BYTE           N12     Dn1   v045
        BYTE   W12
        BYTE           N06     Fs1   v040
        BYTE   W12
        BYTE           N12     Dn1   v035
        BYTE   W12
        BYTE           N06     Fs1   v040
        BYTE   W06
        BYTE                   Fs1   v035
        BYTE   W06
        BYTE           N12     Dn1
        BYTE   W12
        BYTE                   Ds1   v040
        BYTE   W12
        BYTE   PEND
// 033   ----------------------------------------
        BYTE   PATT
         POIN2  AtSkysEnd_8_31
// 034   ----------------------------------------
        BYTE   PATT
         POIN2  AtSkysEnd_8_32
// 035   ----------------------------------------
        BYTE   PATT
         POIN2  AtSkysEnd_8_31
// 036   ----------------------------------------
        BYTE   PATT
         POIN2  AtSkysEnd_8_32
// 037   ----------------------------------------
        BYTE           N12     Dn1   v045
        BYTE   W12
        BYTE           N06     Fs1   v040
        BYTE   W12
        BYTE                   Cn2   v025
        BYTE   W06
        BYTE                   An1
        BYTE   W06
        BYTE                   Cn2
        BYTE   W06
        BYTE                   Gn1   v015
        BYTE   W06
        BYTE           N24     En2   v045
        BYTE           N06     Bn1   v025
        BYTE   W06
        BYTE                   Gn1   v015
        BYTE   W06
        BYTE           N03     An1   v025
        BYTE   W03
        BYTE                   Gn1   v015
        BYTE   W03
        BYTE                   An1   v025
        BYTE   W03
        BYTE                   Gn1   v015
        BYTE   W03
// 038   ----------------------------------------
        BYTE           N12     Dn1   v045
        BYTE           N96     Fn2
        BYTE   W18
        BYTE           N06     Fs1   v040
        BYTE   W06
        BYTE           N12     Dn1   v035
        BYTE   W18
        BYTE           N06     Fs1   v040
        BYTE   W06
        BYTE           N12     Dn1
        BYTE   W06
        BYTE           N06     Fs1   v035
        BYTE   W06
        BYTE           N12     Ds1   v040
        BYTE   W12
        BYTE                   Dn1   v035
        BYTE   W06
        BYTE           N06     Fs1   v040
        BYTE   W06
        BYTE           N12     Dn1   v030
        BYTE   W06
        BYTE           N06     Fs1   v040
        BYTE   W06
// 039   ----------------------------------------
AtSkysEnd_8_39:
        BYTE           N12     Dn1   v045
        BYTE   W18
        BYTE           N06     Fs1   v040
        BYTE   W06
        BYTE           N12     Dn1   v035
        BYTE   W18
        BYTE           N06     Fs1   v040
        BYTE   W06
        BYTE           N12     Dn1
        BYTE   W06
        BYTE           N06     Fs1   v035
        BYTE   W06
        BYTE           N12     Ds1   v040
        BYTE   W12
        BYTE                   Dn1   v035
        BYTE   W06
        BYTE           N06     Fs1   v040
        BYTE   W06
        BYTE           N12     Ds1
        BYTE   W12
        BYTE   PEND
// 040   ----------------------------------------
AtSkysEnd_8_40:
        BYTE           N12     Dn1   v045
        BYTE   W18
        BYTE           N06     Fs1   v040
        BYTE   W06
        BYTE           N12     Dn1   v035
        BYTE   W18
        BYTE           N06     Fs1   v040
        BYTE   W06
        BYTE           N12     Dn1
        BYTE   W06
        BYTE           N06     Fs1   v035
        BYTE   W06
        BYTE           N12     Ds1   v040
        BYTE   W12
        BYTE                   Dn1   v035
        BYTE   W06
        BYTE           N06     Fs1   v040
        BYTE   W06
        BYTE           N12     Dn1   v030
        BYTE   W06
        BYTE           N06     Fs1   v040
        BYTE   W06
        BYTE   PEND
// 041   ----------------------------------------
        BYTE   PATT
         POIN2  AtSkysEnd_8_39
// 042   ----------------------------------------
        BYTE   PATT
         POIN2  AtSkysEnd_8_40
// 043   ----------------------------------------
        BYTE   PATT
         POIN2  AtSkysEnd_8_39
// 044   ----------------------------------------
        BYTE   PATT
         POIN2  AtSkysEnd_8_40
// 045   ----------------------------------------
        BYTE   PATT
         POIN2  AtSkysEnd_8_39
// 046   ----------------------------------------
        BYTE           N12     Dn1   v045
        BYTE           N03     Fs1   v035
        BYTE   W08
        BYTE           N04     Fs1   v025
        BYTE   W04
        BYTE           N03     Fs1   v030
        BYTE           N12     Dn1   v035
        BYTE   W08
        BYTE           N04     Fs1   v025
        BYTE   W04
        BYTE           N03     Fs1   v030
        BYTE           N12     Dn1   v040
        BYTE   W08
        BYTE           N04     Fs1   v025
        BYTE   W04
        BYTE           N03     Fs1   v030
        BYTE           N12     Dn1   v035
        BYTE   W08
        BYTE           N04     Fs1   v025
        BYTE   W04
        BYTE           N12     Dn1   v040
        BYTE           N03     Fs1   v030
        BYTE   W08
        BYTE           N04     Fs1   v025
        BYTE   W04
        BYTE           N03     Fs1   v030
        BYTE           N12     Dn1   v035
        BYTE   W08
        BYTE           N04     Fs1   v025
        BYTE   W04
        BYTE           N03     Fs1   v030
        BYTE           N12     Dn1   v040
        BYTE   W08
        BYTE           N04     Fs1   v025
        BYTE   W04
        BYTE           N03     Fs1   v030
        BYTE           N06     Dn1   v035
        BYTE   W06
        BYTE                   Dn1
        BYTE   W02
        BYTE           N04     Fs1   v025
        BYTE   W04
// 047   ----------------------------------------
AtSkysEnd_8_47:
        BYTE           N03     Fs1   v035
        BYTE           N12     Dn1   v045
        BYTE   W08
        BYTE           N04     Fs1   v025
        BYTE   W04
        BYTE           N03     Fs1   v030
        BYTE           N12     Dn1   v035
        BYTE   W08
        BYTE           N04     Fs1   v025
        BYTE   W04
        BYTE           N03     Fs1   v030
        BYTE           N12     Dn1   v040
        BYTE   W08
        BYTE           N04     Fs1   v025
        BYTE   W04
        BYTE           N03     Fs1   v030
        BYTE           N12     Dn1   v035
        BYTE   W08
        BYTE           N04     Fs1   v025
        BYTE   W04
        BYTE           N03     Fs1   v030
        BYTE           N12     Dn1   v040
        BYTE   W08
        BYTE           N04     Fs1   v025
        BYTE   W04
        BYTE           N03     Fs1   v030
        BYTE           N12     Dn1   v035
        BYTE   W08
        BYTE           N04     Fs1   v025
        BYTE   W04
        BYTE           N03     Fs1   v030
        BYTE           N12     Dn1   v040
        BYTE   W08
        BYTE           N04     Fs1   v025
        BYTE   W04
        BYTE           N03     Fs1   v030
        BYTE           N06     Dn1   v035
        BYTE   W06
        BYTE                   Dn1
        BYTE   W02
        BYTE           N04     Fs1   v025
        BYTE   W04
        BYTE   PEND
// 048   ----------------------------------------
        BYTE   PATT
         POIN2  AtSkysEnd_8_47
// 049   ----------------------------------------
        BYTE           N03     Fs1   v035
        BYTE   W08
        BYTE           N04     Fs1   v025
        BYTE   W04
        BYTE           N03     Fs1   v030
        BYTE   W08
        BYTE           N04     Fs1   v025
        BYTE   W04
        BYTE           N03     Fs1   v030
        BYTE   W08
        BYTE           N04     Fs1   v025
        BYTE   W04
        BYTE           N03     Fs1   v030
        BYTE   W08
        BYTE           N04     Fs1   v025
        BYTE   W04
        BYTE           N48     En2   v045
        BYTE   W48
// 050   ----------------------------------------
        BYTE           N01     Gn1   v035
        BYTE           N12     En1   v040
        BYTE           N12     Dn1
        BYTE           N72     Fn2   v050
        BYTE   W24
        BYTE           N12     Dn1   v035
        BYTE   W24
        BYTE                   Dn1
        BYTE   W12
        BYTE                   Ds1   v030
        BYTE   W12
// 051   ----------------------------------------
        BYTE   PATT
         POIN2  AtSkysEnd_8_16
// 052   ----------------------------------------
        BYTE   PATT
         POIN2  AtSkysEnd_8_16
// 053   ----------------------------------------
        BYTE   PATT
         POIN2  AtSkysEnd_8_16
// 054   ----------------------------------------
AtSkysEnd_8_54:
        BYTE           N06     Fs1   v030
        BYTE           N12     Dn1   v040
        BYTE           N12     En1
        BYTE   W06
        BYTE           N06     Fs1   v020
        BYTE   W06
        BYTE                   Fs1   v025
        BYTE   W06
        BYTE                   Fs1   v020
        BYTE   W06
        BYTE                   Fs1   v025
        BYTE           N12     Dn1   v035
        BYTE   W06
        BYTE           N06     Fs1   v020
        BYTE   W06
        BYTE                   Fs1   v025
        BYTE   W06
        BYTE                   Fs1   v020
        BYTE   W06
        BYTE                   Fs1   v025
        BYTE           N12     Dn1   v035
        BYTE   W06
        BYTE           N06     Fs1   v020
        BYTE   W06
        BYTE                   Fs1   v025
        BYTE           N12     Ds1   v030
        BYTE   W06
        BYTE           N06     Fs1   v020
        BYTE   W06
        BYTE   PEND
// 055   ----------------------------------------
        BYTE   PATT
         POIN2  AtSkysEnd_8_54
// 056   ----------------------------------------
        BYTE   PATT
         POIN2  AtSkysEnd_8_54
// 057   ----------------------------------------
AtSkysEnd_8_57:
        BYTE           N06     Fs1   v030
        BYTE           N12     En1   v040
        BYTE           N12     Dn1
        BYTE   W06
        BYTE           N06     Fs1   v020
        BYTE   W06
        BYTE                   Fs1   v025
        BYTE   W06
        BYTE                   Fs1   v020
        BYTE   W06
        BYTE                   Fs1   v025
        BYTE           N12     Dn1   v035
        BYTE   W06
        BYTE           N06     Fs1   v020
        BYTE   W06
        BYTE                   Fs1   v025
        BYTE   W06
        BYTE                   Fs1   v020
        BYTE   W06
        BYTE                   Fs1   v025
        BYTE           N12     Dn1   v035
        BYTE   W06
        BYTE           N06     Fs1   v020
        BYTE   W06
        BYTE                   Fs1   v025
        BYTE           N12     Ds1   v030
        BYTE   W06
        BYTE           N06     Fs1   v020
        BYTE   W06
        BYTE   PEND
// 058   ----------------------------------------
        BYTE   PATT
         POIN2  AtSkysEnd_8_57
// 059   ----------------------------------------
        BYTE   PATT
         POIN2  AtSkysEnd_8_57
// 060   ----------------------------------------
        BYTE   PATT
         POIN2  AtSkysEnd_8_57
// 061   ----------------------------------------
        BYTE   PATT
         POIN2  AtSkysEnd_8_57
// 062   ----------------------------------------
        BYTE   PATT
         POIN2  AtSkysEnd_8_15
// 063   ----------------------------------------
        BYTE           N12     En1   v040
        BYTE           N12     Dn1
        BYTE   W72
// 064   ----------------------------------------
AtSkysEnd_8_64:
        BYTE           N06     Fs1   v030
        BYTE   W06
        BYTE                   Fs1   v020
        BYTE   W06
        BYTE                   Fs1   v025
        BYTE   W06
        BYTE                   Fs1   v020
        BYTE   W06
        BYTE                   Fs1   v025
        BYTE   W06
        BYTE                   Fs1   v020
        BYTE   W06
        BYTE                   Fs1   v025
        BYTE   W06
        BYTE                   Fs1   v020
        BYTE   W06
        BYTE                   Fs1   v025
        BYTE   W06
        BYTE                   Fs1   v020
        BYTE   W06
        BYTE                   As1   v025
        BYTE   W06
        BYTE                   As1   v020
        BYTE   W06
        BYTE   PEND
// 065   ----------------------------------------
AtSkysEnd_8_65:
        BYTE           N06     Fs1   v030
        BYTE   W06
        BYTE                   Fs1   v020
        BYTE   W06
        BYTE                   Fs1   v025
        BYTE   W06
        BYTE                   Fs1   v020
        BYTE   W06
        BYTE                   Fs1   v025
        BYTE   W06
        BYTE                   Fs1   v020
        BYTE   W06
        BYTE                   Fs1   v025
        BYTE   W06
        BYTE                   Fs1   v020
        BYTE   W06
        BYTE                   Fs1   v025
        BYTE   W06
        BYTE                   Fs1   v020
        BYTE   W06
        BYTE                   Fs1   v025
        BYTE           N12     Ds1   v030
        BYTE   W06
        BYTE           N06     Fs1   v020
        BYTE   W06
        BYTE   PEND
// 066   ----------------------------------------
        BYTE   PATT
         POIN2  AtSkysEnd_8_64
// 067   ----------------------------------------
        BYTE   PATT
         POIN2  AtSkysEnd_8_65
// 068   ----------------------------------------
        BYTE   PATT
         POIN2  AtSkysEnd_8_1
// 069   ----------------------------------------
        BYTE   PATT
         POIN2  AtSkysEnd_8_1
// 070   ----------------------------------------
        BYTE   PATT
         POIN2  AtSkysEnd_8_1
// 071   ----------------------------------------
        BYTE   PATT
         POIN2  AtSkysEnd_8_1
// 072   ----------------------------------------
        BYTE   GoTo
         POIN2  AtSkysEnd_8_LOOP
        BYTE   FINE


//********************** End of Song ***********************//

        ALIGN 4
AtSkysEnd:
        BYTE   9                       // Num Tracks
        BYTE   0                       // Unknown
        BYTE   AtSkysEnd_pri           // Priority
        BYTE   AtSkysEnd_rev           // Reverb

        POIN2   AtSkysEnd_grp          

        POIN2   AtSkysEnd_0
        POIN2   AtSkysEnd_1
        POIN2   AtSkysEnd_2
        POIN2   AtSkysEnd_3
        POIN2   AtSkysEnd_4
        POIN2   AtSkysEnd_5
        POIN2   AtSkysEnd_6
        POIN2   AtSkysEnd_7
        POIN2   AtSkysEnd_8

        
